<svg viewBox="0 0 622 486">

    <a href="#">
    <path class="part" d="m 258.77922,265.99258 h 12.17254 v 8.11503 h -12.62337 z" fill="#4f41be" 
    </a>
<a href="#">
<path class="part" d="m 271.12953,276.31693 -13.07032,0.0797 0.0797,6.69455 h 13.30941 z" fill="#719dff" 
    </a>
<a href="#">
<path class="part" d="m 271.52802,285.56179 -13.54851,0.0797 0.0797,6.61486 13.7079,-0.15939 z" fill="#4f41be" 
    </a>
<a href="#">
<path class="part" d="m 257.97951,294.24878 13.62821,-0.0797 -0.1594,6.21637 -13.46881,0.0797 z" fill="#719dff" 
    </a>
<a href="#">
<path class="part" d="m 257.97951,294.24878 13.62821,-0.0797 -0.1594,6.21637 -13.46881,0.0797 z" fill="#4f41be" 
    </a>

<a href="#">
<path class="part" d="m 247.39564,265.31633 v 7.32606 l -13.29963,-0.33812 0.56354,-7.55149 z" fill="#4f41be" 
    </a>
<a href="#">
<path class="part" d="m 234.09601,275.23469 13.18692,0.22542 -0.22542,7.43878 -13.07421,-0.56355 z" fill="#4f41be" 
    </a>
<a href="#">
<path class="part" d="m 246.8321,285.26577 -0.11271,6.64981 -12.73609,-0.56354 0.45084,-6.53711 z" fill="#719dff" 
    </a>
<a href="#">
<path class="part" d="m 246.8321,294.28247 -0.11271,6.87523 -13.07421,-0.22542 0.22541,-6.76252 z" fill="#4f41be" 
    </a>
<a href="#">
<path class="part" d="m 243.22542,309.38544 -4.95919,-3.26856 -4.84647,10.14379 5.63544,2.14146 z" fill="#719dff" 
    </a>
<a href="#">
<path class="part" d="m 237.70269,321.10714 -5.41002,-2.81772 -4.39564,9.58025 5.63544,2.14146 z" fill="#4f41be" 
    </a>
<a href="#">
<path class="part" d="m 232.40538,332.82885 -5.41002,-3.04314 -4.50835,9.69295 5.29731,2.14147 z" fill="#4f41be" 
    </a>
<a href="#">
<path class="part" d="m 226.43182,344.21243 -5.07189,-2.81772 -5.0719,10.2565 5.41002,2.14146 z" fill="#4f41be" 
    </a>
<a href="#">
<path class="part" d="m 253.48191,314.34462 c 0,0 -5.07189,8.22774 -4.62106,8.22774 0.45084,0 4.28294,2.36688 4.28294,2.36688 l 4.50834,-8.11503 z" fill="#4f41be" 
    </a>
<a href="#">
<path class="part" d="m 247.73377,324.60111 4.95918,2.47959 -5.1846,8.90399 -5.07189,-3.04313 z" fill="#4f41be" 
    </a>
<a href="#">
<path class="part" d="m 241.30937,335.75928 5.63544,2.47959 -5.63544,9.91837 c 0,0 -6.4244,-3.04314 -5.86085,-3.15585 0.56354,-0.11271 5.86085,-9.24211 5.86085,-9.24211 z" fill="#4f41be" 
    </a>
   </svg>